<svg width="113" height="88" viewBox="0 0 113 88" fill="none" xmlns="http://www.w3.org/2000/svg">
<g clip-path="url(#clip0_221_3561)">
<path d="M104.981 62.6307H101.49C99.2378 62.6307 99.2378 66.0602 101.49 66.0602H104.981C107.233 66.0602 107.233 62.6307 104.981 62.6307Z" fill="#231F20"/>
<path d="M91.0219 70.8575H22.6255C20.3735 70.8575 20.3735 74.287 22.6255 74.287H91.0219C93.2739 74.287 93.2739 70.8575 91.0219 70.8575Z" fill="#231F20"/>
<path d="M12.8542 74.287C13.8049 74.287 14.5972 73.5087 14.5972 72.5747C14.5972 71.6407 13.8049 70.8623 12.8542 70.8623H10.0643C9.11358 70.8623 8.32129 71.6407 8.32129 72.5747C8.32129 73.5087 9.11358 74.287 10.0643 74.287H12.8542Z" fill="#231F20"/>
<path d="M77.0637 77.7117H6.57379C4.32176 77.7117 4.32176 81.1411 6.57379 81.1411H77.0637C79.3158 81.1411 79.3158 77.7117 77.0637 77.7117Z" fill="#231F20"/>
<path d="M55.4266 84.5706H24.023C21.771 84.5706 21.771 88 24.023 88H55.4314C57.6834 88 57.6834 84.5706 55.4314 84.5706H55.4266Z" fill="#231F20"/>
<path d="M83.114 25.5486C82.4561 25.5344 81.9135 25.1193 81.2509 25.091C80.7755 25.0674 80.377 25.4967 80.377 25.9496C80.377 26.426 80.7659 26.7704 81.2317 26.8034C81.2317 26.8034 81.2269 26.8034 81.2221 26.8034C81.2941 26.8175 81.3613 26.8458 81.4333 26.8694C81.563 26.9166 81.6926 26.9732 81.8223 27.0251C82.2352 27.1855 82.677 27.2562 83.1188 27.2657C84.2424 27.294 84.2424 25.5769 83.1188 25.5533L83.114 25.5486Z" fill="#231F20"/>
<path d="M99.3483 0.240627C98.5224 -0.183924 97.4372 0.0142 96.9618 0.853868C96.4384 1.77845 95.8814 2.67944 95.3148 3.57099C95.2428 3.4625 95.1563 3.354 95.0507 3.25022C93.9127 2.14167 92.7362 1.16049 91.4398 0.240627C90.7339 -0.259399 89.4038 0.0519378 89.0533 0.853868C86.6332 6.37775 83.3632 11.7129 79.0896 16.0481C78.8735 16.2698 78.7391 16.5056 78.6623 16.7462C78.499 16.7462 78.3405 16.7415 78.1773 16.7462C74.0189 16.7981 70.1151 18.685 70.2015 23.2088C70.2063 23.5579 70.3072 23.8409 70.456 24.0815C69.7934 24.7514 69.1692 25.459 68.6986 26.2656C63.6615 24.3976 57.7121 26.3458 53.4914 29.7705C53.3617 29.879 53.2609 29.9922 53.1745 30.1102C53.1264 30.1479 53.0736 30.1809 53.0256 30.2281C42.0296 41.0305 31.0335 51.833 20.0375 62.6355H1.68512C-0.566914 62.6355 -0.566914 66.0649 1.68512 66.0649H36.3635C36.5219 66.1121 36.6948 66.1168 36.8629 66.0649H93.8118C96.0639 66.0649 96.0639 62.6355 93.8118 62.6355H79.4113C82.763 59.3428 86.1098 56.0549 89.4614 52.7623C89.5575 52.668 89.6343 52.5736 89.7015 52.4746C89.9992 52.2811 90.2489 51.9792 90.3786 51.5453C91.1516 48.9696 90.7339 46.4129 89.375 44.243C90.3306 43.4411 91.3197 42.7004 92.1264 41.7664C92.3425 41.8419 92.5922 41.8702 92.8851 41.8372C99.4491 41.0211 99.5019 35.9784 97.586 31.0583C97.6724 30.9923 97.7589 30.9168 97.8453 30.8225C101.235 27.0487 106.964 25.5816 111.093 22.6569C111.492 22.5673 111.852 22.2984 112.078 21.7889C115.996 12.9347 106.695 4.02857 99.3531 0.245344L99.3483 0.240627ZM91.2189 4.41538C91.6798 4.81634 92.1264 5.23146 92.5826 5.67488C92.8899 5.97678 93.2308 6.12302 93.5717 6.16547C90.8011 10.1185 87.704 13.8593 84.7893 17.718C84.1267 17.501 83.4544 17.3264 82.7678 17.1849C86.2106 13.4017 89.0293 9.01468 91.2237 4.42481L91.2189 4.41538ZM92.8851 38.403C92.7939 38.4125 92.717 38.4361 92.6306 38.4597C92.6114 38.4408 92.597 38.4266 92.5778 38.4078C92.7794 38.2191 92.8851 37.9455 92.7939 37.6011C91.7951 33.8887 89.9272 29.4592 86.3451 27.4921C85.3607 26.9543 84.482 28.4308 85.4664 28.9733C88.6067 30.6998 90.2009 34.7142 91.0892 37.9643C90.6619 38.0351 90.2585 38.2945 89.9848 38.7946C89.2309 40.1909 87.8336 41.0541 86.6284 42.0636C85.4424 42.2853 84.506 43.8373 85.6056 44.9836C87.0365 46.4742 87.5695 48.2904 87.1086 50.2433C87.075 50.2716 87.0365 50.2952 87.0029 50.3282C82.8302 54.4275 78.6574 58.5268 74.4847 62.626H40.589C43.2204 59.9891 45.7605 57.2625 48.5936 54.819C49.7796 53.8001 51.0377 52.8802 52.363 52.0453C53.0304 51.6255 55.5898 49.8659 55.1912 51.4934C54.495 54.3473 51.0425 56.7436 48.9969 58.706C48.1902 59.4796 49.4243 60.692 50.231 59.9183C53.04 57.2201 57.6977 53.8661 56.9679 49.4838C56.9102 49.1489 56.4781 48.8093 56.1276 48.8564C52.1469 49.3659 48.9009 52.2198 46.0294 54.7718C43.2444 57.2484 40.7571 60.0221 38.1065 62.626H24.9785C35.1534 52.6302 45.3284 42.6344 55.4985 32.6433C55.6042 32.5395 55.6906 32.431 55.7626 32.3178C55.8298 32.2754 55.8971 32.2376 55.9643 32.1857C58.9462 29.7658 63.4839 28.0865 67.2148 29.3365C67.2485 29.3695 67.2773 29.3978 67.3157 29.4262C69.2652 30.846 67.4405 33.2377 66.2065 34.4783C65.4238 35.2708 66.653 36.4831 67.4405 35.6906C68.7754 34.3462 69.8894 32.5537 69.851 30.8649C71.5172 32.2093 73.8941 29.8507 72.2471 28.3884C72.079 28.2374 71.9062 28.0959 71.7333 27.9591C72.2231 27.1572 72.9001 26.5203 73.6444 25.7844C74.4127 25.0297 74.2302 24.0815 73.6684 23.473C73.678 23.3834 73.6924 23.2985 73.6924 23.2041C73.6348 20.0624 77.2793 20.1191 79.6706 20.1757C83.3632 20.2653 86.5131 21.8644 89.1925 24.2844C91.1324 26.0345 99.4011 37.5917 92.8851 38.403ZM96.0062 27.7421C94.849 25.6665 93.4997 23.8079 92.3713 22.572C91.0892 21.1663 89.6247 20.0294 88.0401 19.1379C91.8143 14.1659 95.867 9.38263 99.1034 4.05215C104.347 7.20326 111.593 13.7319 109.153 19.8219C105.043 22.6805 99.6076 24.2466 96.011 27.7468L96.0062 27.7421Z" fill="#231F20"/>
<path d="M98.9933 9.94865C98.9645 11.161 98.4843 12.2459 98.0953 13.3781C97.7304 14.4253 99.4158 14.8734 99.776 13.8356C100.223 12.5478 100.708 11.3308 100.736 9.95336C100.76 8.84953 99.0173 8.84953 98.9933 9.95336V9.94865Z" fill="#231F20"/>
<path d="M101.317 11.3214V14.0621C101.317 15.166 103.06 15.166 103.06 14.0621V11.3214C103.06 10.2176 101.317 10.2176 101.317 11.3214Z" fill="#231F20"/>
<path d="M103.646 15.4348V16.35C103.646 17.4538 105.39 17.4538 105.39 16.35V15.4348C105.39 14.331 103.646 14.331 103.646 15.4348Z" fill="#231F20"/>
</g>
<defs>
<clipPath id="clip0_221_3561">
<rect width="113" height="88" fill="white"/>
</clipPath>
</defs>
</svg>
