<svg width="20" height="16" viewBox="0 0 20 16" fill="none" xmlns="http://www.w3.org/2000/svg">
<g clip-path="url(#clip0_215_1173)">
<path d="M19.9668 6.69238C19.9691 6.69699 19.9706 6.70237 19.9722 6.70697C19.9699 6.70237 19.9683 6.69699 19.9668 6.69238Z" fill="#040113"/>
<path d="M19.9893 6.76172C19.9893 6.76172 19.9916 6.7694 19.9923 6.77324C19.9923 6.7694 19.99 6.76556 19.9893 6.76172Z" fill="#040113"/>
<path d="M19.999 6.83984C20.0006 6.91433 19.9806 6.98882 19.9399 7.05333C19.8693 7.16391 19.7472 7.23072 19.6158 7.23072H14.003C13.8087 9.26881 12.087 10.8692 9.99904 10.8692C7.91103 10.8692 6.18933 9.26958 5.99504 7.23072H0.383771C0.252455 7.23072 0.130354 7.16391 0.0597042 7.05333C0.0182359 6.98882 -0.000962333 6.91433 0.000573529 6.83984C0.000573529 6.84215 0.000573529 6.84445 0.000573529 6.84676V15.6096C0.000573529 15.8216 0.17259 15.9936 0.384539 15.9936H19.6166C19.8286 15.9936 20.0006 15.8216 20.0006 15.6096V6.84676C20.0006 6.84676 20.0006 6.84215 20.0006 6.83984H19.999Z" fill="#040113"/>
<path d="M0 6.83976C0 6.81672 0.00230379 6.79445 0.00691138 6.77295C0.00230379 6.79522 0.000767931 6.81749 0 6.83976Z" fill="#040113"/>
<path d="M0.384148 6.46368H6.36096C6.57291 6.46368 6.74492 6.63569 6.74492 6.84764C6.74492 8.6423 8.20476 10.1021 9.99942 10.1021C11.7941 10.1021 13.2539 8.6423 13.2539 6.84764C13.2539 6.63569 13.4259 6.46368 13.6379 6.46368H19.6162C19.7729 6.46368 19.908 6.55813 19.9672 6.69329C19.9664 6.69098 19.9656 6.68791 19.9641 6.68561L16.9507 0.221932C16.8878 0.0867762 16.7518 0 16.6029 0H3.39751C3.24853 0 3.11261 0.0867762 3.04964 0.221932L0.0362748 6.68484C0.0362748 6.68484 0.034739 6.69022 0.0332031 6.69252C0.0931018 6.55736 0.22749 6.46291 0.384148 6.46291V6.46368Z" fill="#040113"/>
<path d="M19.9722 6.70801C19.9791 6.72567 19.9845 6.74333 19.9891 6.76253C19.9852 6.7441 19.9791 6.72567 19.9722 6.70801Z" fill="#040113"/>
<path d="M19.9922 6.77295C19.9968 6.79445 19.9983 6.81672 19.9991 6.83976C19.9991 6.81749 19.9968 6.79522 19.9922 6.77295Z" fill="#040113"/>
</g>
<defs>
<clipPath id="clip0_215_1173">
<rect width="20" height="15.9945" fill="white"/>
</clipPath>
</defs>
</svg>
