<svg width="48" height="48" viewBox="0 0 48 48" fill="none" xmlns="http://www.w3.org/2000/svg">
<mask id="mask0_237_278" style="mask-type:luminance" maskUnits="userSpaceOnUse" x="24" y="22" width="9" height="9">
<mask id="mask1_237_278" style="mask-type:luminance" maskUnits="userSpaceOnUse" x="24" y="22" width="9" height="9">
<mask id="mask2_237_278" style="mask-type:luminance" maskUnits="userSpaceOnUse" x="1" y="1" width="46" height="46">
<path d="M47 1H1V47H47V1Z" fill="white"/>
</mask>
<g mask="url(#mask2_237_278)">
<path d="M32.64 24.2001C32.64 23.5601 32.58 22.9501 32.48 22.3601H24V25.8401H28.84C28.63 26.9601 28 27.9201 27.04 28.5601V30.8201H29.95C31.65 29.2501 32.63 26.9501 32.63 24.2101L32.64 24.2001Z" fill="white"/>
</g>
</mask>
<g mask="url(#mask1_237_278)">
<path d="M0 0H48V48H0V0Z" fill="white"/>
</g>
</mask>
<g mask="url(#mask0_237_278)">
<path d="M37.64 17.3601H19V35.8201H37.64V17.3601Z" fill="#3E82F1"/>
</g>
<mask id="mask3_237_278" style="mask-type:luminance" maskUnits="userSpaceOnUse" x="15" y="25" width="15" height="8">
<mask id="mask4_237_278" style="mask-type:luminance" maskUnits="userSpaceOnUse" x="15" y="25" width="15" height="8">
<mask id="mask5_237_278" style="mask-type:luminance" maskUnits="userSpaceOnUse" x="1" y="1" width="46" height="46">
<path d="M47 1H1V47H47V1Z" fill="white"/>
</mask>
<g mask="url(#mask5_237_278)">
<path d="M24.0002 33C26.4302 33 28.4702 32.19 29.9602 30.82L27.0502 28.56C26.2402 29.1 25.2102 29.42 24.0002 29.42C21.6602 29.42 19.6702 27.84 18.9602 25.71H15.9502V28.04C17.4302 30.98 20.4702 33 23.9902 33H24.0002Z" fill="white"/>
</g>
</mask>
<g mask="url(#mask4_237_278)">
<path d="M0 0H48V48H0V0Z" fill="white"/>
</g>
</mask>
<g mask="url(#mask3_237_278)">
<path d="M34.96 20.71H10.96V38H34.96V20.71Z" fill="#32A753"/>
</g>
<mask id="mask6_237_278" style="mask-type:luminance" maskUnits="userSpaceOnUse" x="14" y="19" width="5" height="10">
<mask id="mask7_237_278" style="mask-type:luminance" maskUnits="userSpaceOnUse" x="14" y="19" width="5" height="10">
<mask id="mask8_237_278" style="mask-type:luminance" maskUnits="userSpaceOnUse" x="1" y="1" width="46" height="46">
<path d="M47 1H1V47H47V1Z" fill="white"/>
</mask>
<g mask="url(#mask8_237_278)">
<path d="M18.9602 25.71C18.7802 25.17 18.6802 24.59 18.6802 24C18.6802 23.41 18.7802 22.83 18.9602 22.29V19.96H15.9502C15.3402 21.17 14.9902 22.55 14.9902 24C14.9902 25.45 15.3402 26.83 15.9502 28.04L18.9602 25.71Z" fill="white"/>
</g>
</mask>
<g mask="url(#mask7_237_278)">
<path d="M0 0H48V48H0V0Z" fill="white"/>
</g>
</mask>
<g mask="url(#mask6_237_278)">
<path d="M23.96 14.96H10V33.04H23.96V14.96Z" fill="#F9BB00"/>
</g>
<mask id="mask9_237_278" style="mask-type:luminance" maskUnits="userSpaceOnUse" x="15" y="15" width="16" height="8">
<mask id="mask10_237_278" style="mask-type:luminance" maskUnits="userSpaceOnUse" x="15" y="15" width="16" height="8">
<mask id="mask11_237_278" style="mask-type:luminance" maskUnits="userSpaceOnUse" x="1" y="1" width="46" height="46">
<path d="M47 1H1V47H47V1Z" fill="white"/>
</mask>
<g mask="url(#mask11_237_278)">
<path d="M24 18.58C25.32 18.58 26.51 19.03 27.44 19.93L30.02 17.35C28.46 15.9 26.42 15.01 24 15.01C20.48 15.01 17.44 17.03 15.96 19.97L18.97 22.3C19.68 20.17 21.66 18.59 24.01 18.59L24 18.58Z" fill="white"/>
</g>
</mask>
<g mask="url(#mask10_237_278)">
<path d="M0 0H48V48H0V0Z" fill="white"/>
</g>
</mask>
<g mask="url(#mask9_237_278)">
<path d="M35.02 10H10.96V27.29H35.02V10Z" fill="#E74235"/>
</g>
</svg>
