<svg width="8" height="8" viewBox="0 0 8 8" fill="none" xmlns="http://www.w3.org/2000/svg">
<g clip-path="url(#clip0_215_1051)">
<path d="M7.36848 8.00013C7.20684 8.00013 7.04519 7.93891 6.92181 7.81457L0.184362 1.07808C-0.0614538 0.831308 -0.0614538 0.4315 0.184362 0.184728C0.431133 -0.0610876 0.830942 -0.0610876 1.07771 0.184728L7.8142 6.92122C8.06098 7.16799 8.06098 7.5678 7.8142 7.81457C7.69082 7.93796 7.52917 8.00013 7.36753 8.00013H7.36848Z" fill="#333333"/>
<path d="M0.630779 7.99981C0.469133 7.99981 0.307488 7.93859 0.184102 7.81425C-0.0626695 7.56748 -0.0626695 7.16767 0.184102 6.9209L6.92155 0.184408C7.16832 -0.0623644 7.56813 -0.0623644 7.8149 0.184408C8.06167 0.431179 8.06167 0.830988 7.8149 1.07776L1.07745 7.81425C0.954069 7.93764 0.792424 7.99981 0.630779 7.99981Z" fill="#333333"/>
</g>
<defs>
<clipPath id="clip0_215_1051">
<rect width="8" height="8" fill="white"/>
</clipPath>
</defs>
</svg>
