<svg width="20" height="20" viewBox="0 0 20 20" fill="none" xmlns="http://www.w3.org/2000/svg">
<g clip-path="url(#clip0_215_626)">
<path d="M8.29773 16.5955C3.72257 16.5955 0 12.8729 0 8.29773C0 3.72257 3.72257 0 8.29773 0C12.8729 0 16.5955 3.72257 16.5955 8.29773C16.5955 12.8729 12.8729 16.5955 8.29773 16.5955ZM8.29773 1.27598C4.42629 1.27695 1.27598 4.42629 1.27598 8.29773C1.27598 12.1692 4.42629 15.3185 8.29773 15.3185C12.1692 15.3185 15.3185 12.1692 15.3185 8.29773C15.3185 4.42629 12.1692 1.27695 8.29773 1.27695V1.27598Z" fill="white"/>
<path d="M19.3608 20C19.1975 20 19.0341 19.9382 18.9094 19.8125L13.2613 14.1644C13.0119 13.915 13.0119 13.5109 13.2613 13.2615C13.5107 13.0121 13.9147 13.0121 14.1641 13.2615L19.8123 18.9096C20.0617 19.159 20.0617 19.5631 19.8123 19.8125C19.6876 19.9372 19.5242 20 19.3608 20Z" fill="white"/>
</g>
<defs>
<clipPath id="clip0_215_626">
<rect width="20" height="20" fill="white"/>
</clipPath>
</defs>
</svg>
