<svg width="20" height="20" viewBox="0 0 20 20" fill="none" xmlns="http://www.w3.org/2000/svg">
<g clip-path="url(#clip0_215_1141)">
<path d="M13.4187 2.09728C13.3403 2.01893 13.2345 1.97559 13.1236 1.97559C13.0128 1.97559 12.9069 2.01976 12.8286 2.09728L0.197588 14.7291C0.190087 14.7366 0.184252 14.7457 0.176751 14.7541C0.166749 14.7658 0.156747 14.7766 0.147578 14.7891C0.140076 14.8008 0.134242 14.8124 0.127574 14.8249C0.120906 14.8366 0.114238 14.8483 0.108403 14.8608C0.102569 14.8741 0.0992346 14.8883 0.095067 14.9016C0.091733 14.9141 0.086732 14.9258 0.0842314 14.9383C0.0808974 14.955 0.0800639 14.9716 0.0783969 14.9883C0.0783969 14.9975 0.0750629 15.0066 0.0750629 15.0158L4.72358e-05 19.4992C-0.00161978 19.6109 0.0408891 19.7185 0.119239 19.7985C0.197588 19.8785 0.304277 19.9227 0.415967 19.9227H4.96108C4.96608 19.9227 4.97025 19.9243 4.97525 19.9243C5.08194 19.9243 5.18863 19.8835 5.27031 19.8026L17.9021 7.17084C18.0646 7.0083 18.0646 6.74408 17.9021 6.58155L13.4178 2.09728H13.4187Z" fill="#C6C6D0"/>
<path d="M19.8774 3.72598L16.2742 0.1219C16.1116 -0.0406335 15.8474 -0.0406335 15.6849 0.1219C15.5224 0.284434 15.5224 0.548656 15.6849 0.71119L19.2881 4.31444C19.3698 4.39612 19.4765 4.43613 19.5832 4.43613C19.6899 4.43613 19.7966 4.39529 19.8783 4.31444C20.0408 4.15191 20.0408 3.88768 19.8783 3.72515L19.8774 3.72598Z" fill="#C6C6D0"/>
</g>
<defs>
<clipPath id="clip0_215_1141">
<rect width="20" height="19.9242" fill="white"/>
</clipPath>
</defs>
</svg>
