<svg width="20" height="20" viewBox="0 0 20 20" fill="none" xmlns="http://www.w3.org/2000/svg">
<g clip-path="url(#clip0_215_597)">
<path d="M13.4187 2.09716C13.3403 2.01881 13.2345 1.97546 13.1236 1.97546C13.0128 1.97546 12.9069 2.01964 12.8286 2.09716L0.197588 14.729C0.190087 14.7365 0.184252 14.7456 0.176751 14.754C0.166749 14.7656 0.156747 14.7765 0.147578 14.789C0.140076 14.8006 0.134242 14.8123 0.127574 14.8248C0.120906 14.8365 0.114238 14.8481 0.108403 14.8606C0.102569 14.874 0.0992346 14.8882 0.095067 14.9015C0.091733 14.914 0.086732 14.9257 0.0842314 14.9382C0.0808974 14.9548 0.0800639 14.9715 0.0783969 14.9882C0.0783969 14.9973 0.0750629 15.0065 0.0750629 15.0157L4.72358e-05 19.4991C-0.00161978 19.6108 0.0408891 19.7183 0.119239 19.7983C0.197588 19.8784 0.304277 19.9225 0.415967 19.9225H4.96108C4.96608 19.9225 4.97025 19.9242 4.97525 19.9242C5.08194 19.9242 5.18863 19.8834 5.27031 19.8025L17.9021 7.17071C18.0646 7.00818 18.0646 6.74396 17.9021 6.58142L13.4178 2.09716H13.4187Z" fill="#040113"/>
<path d="M19.8774 3.72574L16.2742 0.121656C16.1116 -0.0408776 15.8474 -0.0408776 15.6849 0.121656C15.5224 0.28419 15.5224 0.548412 15.6849 0.710946L19.2881 4.3142C19.3698 4.39588 19.4765 4.43589 19.5832 4.43589C19.6899 4.43589 19.7966 4.39505 19.8783 4.3142C20.0408 4.15166 20.0408 3.88744 19.8783 3.72491L19.8774 3.72574Z" fill="#040113"/>
</g>
<defs>
<clipPath id="clip0_215_597">
<rect width="20" height="19.9242" fill="white"/>
</clipPath>
</defs>
</svg>
