<svg width="17" height="18" viewBox="0 0 17 18" fill="none" xmlns="http://www.w3.org/2000/svg">
<g clip-path="url(#clip0_215_496)">
<path d="M15.4585 11.3916C14.5782 10.0606 13.395 9.01999 12.0159 8.35417C12.883 7.46662 13.4188 6.25441 13.4188 4.9188C13.4188 2.20666 11.2121 0 8.5 0C5.78787 0 3.5812 2.20666 3.5812 4.9188C3.5812 6.25441 4.11703 7.46662 4.98412 8.35417C3.6043 9.01999 2.42178 10.06 1.5415 11.3916C0.533188 12.9166 0 14.7115 0 16.5823C0 16.9492 0.29035 17.2481 0.647349 17.2481H16.3553C16.711 17.2481 17 16.9505 17 16.5823C17 14.7115 16.4668 12.9166 15.4585 11.3916Z" fill="#C6C6D0"/>
</g>
<defs>
<clipPath id="clip0_215_496">
<rect width="17" height="17.2481" fill="white"/>
</clipPath>
</defs>
</svg>
