<svg width="14" height="20" viewBox="0 0 14 20" fill="none" xmlns="http://www.w3.org/2000/svg">
<g clip-path="url(#clip0_241_956)">
<path d="M6.89815 4.95898C6.41395 4.95898 6.02002 5.35291 6.02002 5.83711C6.02002 6.32131 6.41395 6.71524 6.89815 6.71524C7.38235 6.71524 7.77628 6.32131 7.77628 5.83711C7.77628 5.35291 7.38235 4.95898 6.89815 4.95898Z" fill="#040113"/>
<path d="M13.2853 5.89025L8.24561 0.578953C7.89122 0.20517 7.41299 0 6.8982 0C6.38341 0 5.90443 0.205916 5.55079 0.578953L0.510314 5.89025C0.181296 6.23718 0 6.69079 0 7.16902V18.1415C0 19.1659 0.833364 19.9993 1.85772 19.9993H11.9379C12.9623 19.9993 13.7957 19.1659 13.7957 18.1415V7.16977C13.7957 6.69153 13.6144 6.23792 13.2853 5.891V5.89025ZM6.89745 7.38613C6.0432 7.38613 5.34786 6.69079 5.34786 5.83653C5.34786 4.98228 6.0432 4.28694 6.89745 4.28694C7.75171 4.28694 8.44705 4.98228 8.44705 5.83653C8.44705 6.69079 7.75171 7.38613 6.89745 7.38613Z" fill="#040113"/>
</g>
<defs>
<clipPath id="clip0_241_956">
<rect width="13.7957" height="20" fill="white"/>
</clipPath>
</defs>
</svg>
