<svg width="8" height="8" viewBox="0 0 8 8" fill="none" xmlns="http://www.w3.org/2000/svg">
<g clip-path="url(#clip0_215_832)">
<path d="M7.36897 8.00013C7.20733 8.00013 7.04568 7.93891 6.9223 7.81457L0.18485 1.07808C-0.0609656 0.831308 -0.0609656 0.4315 0.18485 0.184728C0.431622 -0.0610876 0.831431 -0.0610876 1.0782 0.184728L7.81469 6.92122C8.06146 7.16799 8.06146 7.5678 7.81469 7.81457C7.69131 7.93796 7.52966 8.00013 7.36802 8.00013H7.36897Z" fill="white"/>
<path d="M0.631267 7.99987C0.469622 7.99987 0.307977 7.93865 0.184591 7.81431C-0.0621812 7.56754 -0.0621812 7.16773 0.184591 6.92096L6.92204 0.184469C7.16881 -0.0623033 7.56862 -0.0623033 7.81539 0.184469C8.06216 0.43124 8.06216 0.831049 7.81539 1.07782L1.07794 7.81431C0.954557 7.9377 0.792912 7.99987 0.631267 7.99987Z" fill="white"/>
</g>
<defs>
<clipPath id="clip0_215_832">
<rect width="8" height="8" fill="white"/>
</clipPath>
</defs>
</svg>
